<svg viewBox="0 0 100 100" xmlns="http://www.w3.org/2000/svg" role="img" aria-label="DEVERITAS">
  <defs>
    <linearGradient id="dv-iris" x1="0%" y1="0%" x2="100%" y2="100%">
      <stop offset="0%" stop-color="#5EEAD4"/>
      <stop offset="100%" stop-color="#8B7CF6"/>
    </linearGradient>
    <linearGradient id="dv-shield" x1="0%" y1="0%" x2="0%" y2="100%">
      <stop offset="0%" stop-color="#E7EAF0"/>
      <stop offset="100%" stop-color="#9AA3B8"/>
    </linearGradient>
  </defs>

  <path d="M50 4 C 64 4 82 11 88 16 V 46 C 88 73 70 89 50 96 C 30 89 12 73 12 46 V 16 C 18 11 36 4 50 4 Z"
        fill="none" stroke="url(#dv-shield)" stroke-width="3.2" stroke-linejoin="round"/>

  <path d="M21 46 C 33 28 67 28 79 46 C 67 64 33 64 21 46 Z"
        fill="none" stroke="#E7EAF0" stroke-width="3" stroke-linejoin="round" stroke-linecap="round"/>

  <g stroke="#6B7488" stroke-width="1" fill="none" opacity="0.75">
    <line x1="50" y1="46" x2="34" y2="32"/>
    <line x1="50" y1="46" x2="66" y2="32"/>
    <line x1="50" y1="46" x2="50" y2="24"/>
  </g>
  <g fill="#5EEAD4">
    <circle cx="34" cy="32" r="2.2"/>
    <circle cx="66" cy="32" r="2.2"/>
    <circle cx="50" cy="24" r="2.2"/>
  </g>

  <circle cx="50" cy="46" r="13" fill="url(#dv-iris)"/>

  <path d="M44 46.5 L48.5 51 L57 41" fill="none" stroke="#0B0E14" stroke-width="3.6"
        stroke-linecap="round" stroke-linejoin="round"/>
</svg>
